<?xml version="1.0" encoding="UTF-8" standalone="no"?>
<!-- Created with Inkscape (http://www.inkscape.org/) -->

<svg
   xmlns:dc="http://purl.org/dc/elements/1.1/"
   xmlns:cc="http://creativecommons.org/ns#"
   xmlns:rdf="http://www.w3.org/1999/02/22-rdf-syntax-ns#"
   xmlns:svg="http://www.w3.org/2000/svg"
   xmlns="http://www.w3.org/2000/svg"
   xmlns:sodipodi="http://sodipodi.sourceforge.net/DTD/sodipodi-0.dtd"
   xmlns:inkscape="http://www.inkscape.org/namespaces/inkscape"
   width="500mm"
   height="500mm"
   viewBox="0 0 500 500"
   version="1.1"
   id="svg8"
   inkscape:version="0.92.4 (5da689c313, 2019-01-14)"
   sodipodi:docname="unity.svg">
  <defs
     id="defs2" />
  <sodipodi:namedview
     id="base"
     pagecolor="#ffffff"
     bordercolor="#666666"
     borderopacity="1.0"
     inkscape:pageopacity="0.0"
     inkscape:pageshadow="2"
     inkscape:zoom="0.35"
     inkscape:cx="1476.3222"
     inkscape:cy="882.70088"
     inkscape:document-units="mm"
     inkscape:current-layer="layer1"
     showgrid="false"
     inkscape:window-width="1920"
     inkscape:window-height="1017"
     inkscape:window-x="-8"
     inkscape:window-y="-8"
     inkscape:window-maximized="1" />
  <metadata
     id="metadata5">
    <rdf:RDF>
      <cc:Work
         rdf:about="">
        <dc:format>image/svg+xml</dc:format>
        <dc:type
           rdf:resource="http://purl.org/dc/dcmitype/StillImage" />
        <dc:title></dc:title>
      </cc:Work>
    </rdf:RDF>
  </metadata>
  <g
     inkscape:label="Layer 1"
     inkscape:groupmode="layer"
     id="layer1"
     transform="translate(0,203)">
    <path
       style="fill:#000000;stroke-width:0.96950895"
       d="M 330.04694,233.61577 C 286.5887,222.22116 248.41428,212.19692 245.2149,211.3397 l -5.81705,-1.55857 -12.60362,-21.74858 -12.60362,-21.74857 -26.17674,-0.0596 -26.17674,-0.0596 -62.048577,-60.38705 C 65.661836,72.564799 37.739977,44.810028 37.739977,44.100415 c 0,-0.709612 27.921859,-28.469124 62.048576,-61.687813 l 62.048577,-60.397624 26.17674,-0.06973 26.17674,-0.06973 12.11887,-20.883898 c 6.66537,-11.48612 12.35428,-21.2776 12.64202,-21.75885 0.44806,-0.74941 171.72547,-45.68406 172.23278,-45.1853 0.19037,0.18717 44.27836,160.0508876 45.40887,164.6532432 0.53587,2.18156945 -1.35519,5.9309511 -11.55396,22.9079728 -6.70708,11.164709 -12.45615,20.980812 -12.77571,21.813581 -0.36022,0.938698 4.30061,9.658548 12.26424,22.944911 l 12.84524,21.4308 -21.99865,79.698512 c -12.09926,43.83418 -22.4444,81.33456 -22.98921,83.33417 -0.5448,1.99962 -1.51539,3.60572 -2.15686,3.56912 -0.64147,-0.0366 -36.72306,-9.3894 -80.1813,-20.78402 z m 19.22859,-43.0117 c -0.17774,-0.46429 -17.10393,-29.04057 -37.61375,-63.50283 l -37.29058,-62.658647 -75.65722,0.04896 -75.65721,0.04896 47.65335,47.214597 47.65335,47.21461 64.32494,16.14899 c 35.37871,8.88194 64.90664,16.18962 65.61761,16.23927 0.71098,0.0496 1.14726,-0.2896 0.96951,-0.7539 z m 55.65436,-83.49795 18.08769,-63.012937 -18.09963,-63.023215 c -9.9548,-34.662774 -18.33375,-63.023216 -18.61988,-63.023216 -0.28615,0 -17.39671,28.36241 -38.02349,63.027578 l -37.50322,63.027588 37.49224,63.008562 c 20.62073,34.65472 37.73666,63.00858 38.03541,63.00858 0.29874,0 8.68264,-28.35583 18.63088,-63.01294 z M 311.74197,-40.122954 c 20.73233,-34.84878 37.69515,-63.479616 37.69515,-63.624086 0,-0.14446 -29.59581,7.208646 -65.76848,16.340242 l -65.76847,16.602902 -47.17932,46.526867 c -25.94863,25.5897796 -47.17933,46.861047 -47.17933,47.269501 0,0.408454 33.86369,0.630888 75.25265,0.494314 l 75.25266,-0.248321 z"
       id="path3724"
       inkscape:connector-curvature="0"
       sodipodi:nodetypes="cccccccssscccscccscccscscccscccccscccscssscsssssscssscs" />
  </g>
</svg>
